<?xml version="1.0" encoding="UTF-8" standalone="no"?><!DOCTYPE svg PUBLIC "-//W3C//DTD SVG 1.1//EN" "http://www.w3.org/Graphics/SVG/1.1/DTD/svg11.dtd"><svg width="100%" height="100%" viewBox="0 0 2084 2084" version="1.1" xmlns="http://www.w3.org/2000/svg" xmlns:xlink="http://www.w3.org/1999/xlink" xml:space="preserve" xmlns:serif="http://www.serif.com/" style="fill-rule:evenodd;clip-rule:evenodd;stroke-linecap:square;stroke-linejoin:round;stroke-miterlimit:1.5;"><rect id="Tavola-da-disegno3" serif:id="Tavola da disegno3" x="0" y="-0" width="2083.33" height="2083.33" style="fill:none;"/><clipPath id="_clip1"><rect x="0" y="-0" width="2083.33" height="2083.33"/></clipPath><g clip-path="url(#_clip1)"><g><circle cx="1041.67" cy="1041.67" r="1041.67" style="fill:#fff;"/><path d="M1041.67,0c574.911,0 1041.67,466.755 1041.67,1041.67c0,574.911 -466.755,1041.67 -1041.67,1041.67c-574.912,0 -1041.67,-466.755 -1041.67,-1041.67c0,-574.912 466.755,-1041.67 1041.67,-1041.67Zm-0,173.963c478.898,0 867.703,388.805 867.703,867.704c0,478.898 -388.805,867.703 -867.703,867.703c-478.899,0 -867.704,-388.805 -867.704,-867.703c0,-478.899 388.805,-867.704 867.704,-867.704Z"/><path d="M1025.29,0l-147.826,307.581" style="fill:none;stroke:#fff;stroke-width:174.17px;"/><path d="M1037.5,0l0,2083.33" style="fill:none;stroke:#fff;stroke-width:170.58px;"/><path d="M1041.67,436.353l-0,1064.42" style="fill:none;stroke:#000;stroke-width:174.17px;"/><path d="M1161.76,119.217l-90.53,188.364" style="fill:none;stroke:#000;stroke-width:174.17px;"/></g></g></svg>